<?xml version="1.0" encoding="UTF-8" standalone="no"?><!DOCTYPE svg PUBLIC "-//W3C//DTD SVG 1.1//EN" "http://www.w3.org/Graphics/SVG/1.1/DTD/svg11.dtd"><svg width="100%" height="100%" viewBox="0 0 300 300" version="1.1" xmlns="http://www.w3.org/2000/svg" xmlns:xlink="http://www.w3.org/1999/xlink" xml:space="preserve" xmlns:serif="http://www.serif.com/" style="fill-rule:evenodd;clip-rule:evenodd;stroke-linejoin:round;stroke-miterlimit:1.41421;"><g id="tc-logo-wrapper"><path d="M134.598,76.059c0.472,-0.118 0.915,-0.059 1.327,0.176c0.413,0.235 0.649,0.559 0.708,0.97c0.059,0.412 0,0.824 -0.177,1.235c-0.177,0.412 -0.501,0.677 -0.973,0.794c-3.774,1.059 -7.637,1.911 -11.589,2.558c-3.951,0.647 -7.932,1.265 -11.942,1.853c-2.713,0.352 -5.456,0.705 -8.227,1.058c-2.772,0.353 -5.574,0.647 -8.404,0.882c-2.831,0.353 -5.692,0.735 -8.581,1.147c-2.89,0.412 -5.751,0.794 -8.581,1.147c-0.59,0.117 -1.239,0.205 -1.947,0.264c-0.707,0.059 -1.356,0.147 -1.946,0.265c-0.236,0.941 -0.501,1.882 -0.796,2.822c-0.295,0.941 -0.619,1.882 -0.973,2.823c-3.421,11.055 -7.018,21.905 -10.793,32.549c-3.774,10.643 -7.608,21.375 -11.5,32.195c-2.005,5.41 -3.951,10.791 -5.839,16.142c-1.887,5.351 -3.715,10.732 -5.484,16.142c-0.944,2.705 -1.829,5.41 -2.654,8.115c-0.826,2.705 -1.71,5.41 -2.654,8.115c-0.826,2.705 -1.622,5.381 -2.389,8.027c-0.766,2.646 -1.739,5.263 -2.919,7.85c-0.236,0.471 -0.59,0.736 -1.061,0.794c-0.472,0.059 -0.944,-0.029 -1.416,-0.264c-0.826,-0.353 -1.002,-1.118 -0.531,-2.294c0.354,-0.941 0.708,-1.852 1.062,-2.734c0.354,-0.882 0.649,-1.794 0.885,-2.735c1.769,-5.41 3.509,-10.79 5.219,-16.141c1.71,-5.352 3.509,-10.732 5.396,-16.142c1.887,-5.41 3.745,-10.791 5.573,-16.142c1.829,-5.352 3.745,-10.732 5.751,-16.142c3.774,-10.35 7.489,-20.7 11.146,-31.049c3.656,-10.35 7.077,-20.817 10.262,-31.402c-1.652,0.235 -3.273,0.441 -4.866,0.618c-1.592,0.176 -3.214,0.382 -4.865,0.617c-1.416,0.235 -2.831,0.441 -4.247,0.617c-1.415,0.177 -2.83,0.383 -4.246,0.618c-1.415,0.235 -2.801,0.47 -4.158,0.706c-1.356,0.235 -2.742,0.352 -4.157,0.352c-1.18,0 -1.77,-0.588 -1.77,-1.764c0,-1.176 0.59,-1.764 1.77,-1.764c1.887,0 3.774,-0.147 5.661,-0.441c1.888,-0.294 3.834,-0.617 5.839,-0.97c2.005,-0.235 3.981,-0.5 5.927,-0.794c1.946,-0.294 3.922,-0.559 5.927,-0.794c5.662,-0.823 11.353,-1.617 17.074,-2.382c5.72,-0.764 11.47,-1.44 17.25,-2.028c5.544,-0.706 11.058,-1.441 16.543,-2.206c5.484,-0.764 10.94,-1.852 16.365,-3.263Zm-32.005,85.526c0.184,-0.517 0.385,-1.035 0.601,-1.553c0.295,-0.706 0.619,-1.411 0.973,-2.117c0.118,-0.235 0.236,-0.529 0.354,-0.882c0.118,-0.353 0.236,-0.647 0.354,-0.882c0.118,-0.118 0.177,-0.294 0.177,-0.529c0,0 0.059,-0.118 0.176,-0.353c0.472,-1.059 1.18,-1.411 2.124,-1.059c0.471,0.118 0.855,0.383 1.15,0.794c0.295,0.412 0.324,0.853 0.088,1.323c-0.354,0.941 -0.767,1.882 -1.238,2.823c-0.472,0.941 -0.885,1.882 -1.239,2.823c-0.236,0.588 -0.442,1.205 -0.619,1.852c-0.177,0.647 -0.383,1.264 -0.619,1.852c-0.236,0.706 -0.354,1.235 -0.354,1.588c-0.118,0.235 -0.177,0.647 -0.177,1.235l0,0.353c0.118,0 0.177,0.059 0.177,0.176l0,0.177c0.118,0 0.236,0.058 0.354,0.176l0.177,0c0.943,-0.118 1.828,-0.735 2.653,-1.852c0.826,-1.118 1.534,-2.323 2.124,-3.617l0.177,0c0.471,-1.176 0.766,-1.999 0.884,-2.47c0.118,-0.352 0.325,-0.911 0.619,-1.676c0.295,-0.764 0.561,-1.617 0.797,-2.558l1.061,-3.175c0,-0.118 0.03,-0.176 0.089,-0.176c0.059,0 0.088,-0.059 0.088,-0.177c0.354,-1.058 1.091,-1.441 2.212,-1.147c1.12,0.295 1.504,0.971 1.15,2.029c-0.354,1.059 -0.738,2.117 -1.15,3.176c-0.413,1.058 -0.797,2.117 -1.15,3.175c-0.118,0.471 -0.236,0.882 -0.354,1.235c-0.118,0.353 -0.236,0.765 -0.354,1.235l-0.177,0.176l0,0.177c-0.236,0.47 -0.383,0.911 -0.442,1.323c-0.059,0.412 -0.207,0.853 -0.443,1.323l0,0.176c-0.236,0.706 -0.412,1.177 -0.53,1.412l0,0.176c-0.118,0.588 -0.413,1.47 -0.885,2.646c1.651,-1.764 3.391,-3.44 5.219,-5.027c1.829,-1.588 3.745,-3.146 5.75,-4.675c0.354,-0.353 0.797,-0.5 1.327,-0.441c0.531,0.058 0.914,0.264 1.15,0.617c0.59,0.706 0.354,1.47 -0.707,2.293c-0.472,0.236 -0.885,0.53 -1.239,0.882c-0.354,0.353 -0.708,0.647 -1.061,0.883c-4.365,3.763 -8.611,7.938 -12.739,12.525c-1.534,4.469 -3.126,8.909 -4.777,13.319c-1.651,4.411 -3.303,8.85 -4.954,13.32c-0.59,1.293 -1.15,2.558 -1.681,3.792c-0.531,1.235 -1.091,2.5 -1.681,3.793c-0.59,1.059 -1.238,2.117 -1.946,3.176c-0.708,1.058 -1.592,2.058 -2.654,2.999c-0.943,0.706 -2.123,1.176 -3.538,1.411c-1.416,0.235 -2.595,0.059 -3.539,-0.529c-0.826,-0.588 -1.327,-1.353 -1.504,-2.293c-0.177,-0.941 -0.147,-1.882 0.089,-2.823c0.118,-0.941 0.324,-1.882 0.619,-2.823c0.295,-0.941 0.619,-1.881 0.973,-2.822c0.59,-1.294 1.179,-2.558 1.769,-3.793c0.59,-1.235 1.239,-2.499 1.946,-3.793c1.298,-2.47 2.772,-4.852 4.424,-7.145c1.651,-2.293 3.361,-4.616 5.131,-6.968c1.297,-1.647 2.594,-3.264 3.892,-4.852c1.297,-1.587 2.654,-3.205 4.069,-4.851c0.236,-0.823 0.502,-1.647 0.796,-2.47c0.295,-0.823 0.561,-1.646 0.797,-2.47c-1.062,0.588 -2.124,0.824 -3.185,0.706c-1.651,-0.353 -2.654,-1.294 -3.008,-2.823c-0.067,-0.244 -0.121,-0.489 -0.163,-0.736l-0.191,0.207c-0.825,0.706 -1.828,1.294 -3.007,1.764c-1.18,0.471 -2.242,0.235 -3.185,-0.705c-0.708,-0.706 -1.091,-1.588 -1.15,-2.647c-0.059,-1.058 0.029,-2.058 0.265,-2.999c0.236,-1.176 0.472,-2.058 0.708,-2.646l-0.708,0c-1.533,3.176 -2.949,5.998 -4.246,8.468c-1.18,2.117 -2.448,4.058 -3.804,5.822c-1.356,1.764 -2.565,2.646 -3.627,2.646c-0.236,0 -0.472,-0.059 -0.708,-0.177c-0.825,-0.235 -1.356,-0.705 -1.592,-1.411c-0.236,-0.706 -0.354,-1.47 -0.354,-2.293c0,-1.764 0.177,-3.646 0.531,-5.646c0.236,-0.94 0.472,-1.881 0.708,-2.822c0.235,-0.941 0.53,-1.882 0.884,-2.823c0.118,-0.235 0.236,-0.529 0.354,-0.882c0.118,-0.353 0.236,-0.647 0.354,-0.882l-0.531,0c-0.118,0 -0.206,-0.029 -0.265,-0.088c-0.059,-0.059 -0.148,-0.088 -0.266,-0.088l-2.654,8.115c-0.353,1.058 -1.061,1.411 -2.123,1.058c-1.061,-0.353 -1.474,-1.058 -1.238,-2.117c0.118,-0.117 0.177,-0.353 0.177,-0.705c0.095,-0.19 0.267,-0.705 0.515,-1.544l-3.169,1.896c-0.826,0.471 -1.681,0.882 -2.566,1.235c-0.884,0.353 -1.798,0.647 -2.742,0.882c-0.944,0.236 -1.946,0.353 -3.008,0.353c-1.061,0 -2.005,-0.294 -2.831,-0.882c-0.943,-0.706 -1.503,-1.529 -1.68,-2.47c-0.177,-0.941 -0.148,-1.94 0.088,-2.999c0.236,-0.941 0.531,-1.793 0.885,-2.558c0.354,-0.764 0.766,-1.617 1.238,-2.558c0.472,-0.823 0.973,-1.646 1.504,-2.47c0.531,-0.823 1.15,-1.528 1.858,-2.117c0.825,-0.823 1.769,-1.47 2.831,-1.94c1.061,-0.47 2.123,-0.529 3.184,-0.176c1.298,0.352 2.153,1.087 2.566,2.205c0.413,1.117 0.324,2.205 -0.266,3.263c-0.943,1.647 -2.359,2.764 -4.246,3.352c-1.887,0.588 -3.656,1.059 -5.308,1.412c-0.236,0.47 -0.471,1.176 -0.707,2.117c-0.236,0.94 -0.295,1.528 -0.177,1.764c0.118,0.117 0.177,0.176 0.177,0.176l0,0.177l0.177,0c0,0.117 0.059,0.176 0.176,0.176c0.118,0 0.236,0.059 0.354,0.176c0.472,0 0.885,-0.029 1.239,-0.088c0.354,-0.059 0.767,-0.147 1.238,-0.264c1.652,-0.471 3.303,-1.177 4.954,-2.117c0.59,-0.353 1.15,-0.706 1.681,-1.059c0.531,-0.353 1.091,-0.706 1.681,-1.058c0.59,-0.353 1.091,-0.735 1.504,-1.147c0.413,-0.412 0.855,-0.794 1.327,-1.147l0.011,-0.006c0.052,-0.114 0.107,-0.23 0.166,-0.347l-0.177,-0.176c-0.118,-0.118 -0.295,-0.412 -0.531,-0.882c-0.118,-0.118 -0.177,-0.235 -0.177,-0.353c-0.354,-1.058 -0.472,-2.058 -0.354,-2.999c0,-1.294 0.649,-2.176 1.946,-2.646c1.534,-0.235 2.654,0.176 3.362,1.235c0.59,1.058 0.708,2.411 0.354,4.057c0.472,0 0.914,0.03 1.327,0.088c0.413,0.059 0.855,0.089 1.327,0.089c0.825,0.235 1.238,0.823 1.238,1.764l0,0.529c-0.236,0.588 -0.442,1.088 -0.619,1.5c-0.177,0.411 -0.383,0.911 -0.619,1.499c-0.236,0.823 -0.472,1.617 -0.708,2.382c-0.236,0.764 -0.472,1.499 -0.708,2.205c-0.236,0.823 -0.412,1.617 -0.53,2.381c-0.118,0.765 -0.177,1.618 -0.177,2.558c0,0.236 -0.03,0.412 -0.089,0.53c-0.059,0.117 -0.088,0.294 -0.088,0.529c0.589,-0.235 1.268,-1.088 2.034,-2.558c0.767,-1.47 1.622,-3.029 2.566,-4.675l3.185,-6.704l-0.177,-0.176c-1.298,-1.294 -1.77,-2.823 -1.416,-4.587c0,-1.294 0.649,-2.176 1.946,-2.646c1.534,-0.235 2.654,0.176 3.362,1.235c0.59,1.058 0.708,2.411 0.354,4.057c0.472,0 0.914,0.03 1.327,0.088c0.413,0.059 0.855,0.089 1.327,0.089c0.825,0.235 1.238,0.823 1.238,1.764l0,0.176c0,0 -0.059,0.118 -0.177,0.353c-0.236,0.588 -0.442,1.176 -0.619,1.764c-0.177,0.588 -0.324,1.176 -0.442,1.764c-0.118,0.471 -0.207,0.853 -0.266,1.147c-0.059,0.294 -0.088,0.617 -0.088,0.97l0,1.059c0.236,0 0.678,-0.324 1.327,-0.971c0.649,-0.646 1.209,-1.205 1.681,-1.675c0.118,-0.118 0.206,-0.236 0.265,-0.353c0.059,-0.118 0.147,-0.236 0.265,-0.353l0.354,-0.353c0.354,-0.47 0.679,-0.911 0.973,-1.323c0.295,-0.412 0.561,-0.853 0.797,-1.323c0.006,-0.012 0.012,-0.023 0.018,-0.035Zm-2.142,30.378c0.354,-1.058 0.738,-2.146 1.15,-3.264c0.413,-1.117 0.797,-2.205 1.15,-3.263c-0.825,0.941 -1.592,1.911 -2.3,2.911c-0.707,0.999 -1.474,2.028 -2.3,3.087c-1.651,2.352 -3.214,4.704 -4.688,7.056c-1.475,2.353 -2.802,4.764 -3.981,7.233c-0.59,1.059 -1.091,2.147 -1.504,3.264c-0.413,1.117 -0.796,2.205 -1.15,3.264c-0.236,1.176 -0.354,1.999 -0.354,2.47c0,0.823 0.118,1.352 0.354,1.587c0.59,0.471 1.298,0.412 2.123,-0.176c0.826,-0.588 1.475,-1.235 1.946,-1.941c1.534,-2.234 2.713,-4.469 3.539,-6.703c1.061,-2.588 2.064,-5.175 3.008,-7.763c0.943,-2.587 1.946,-5.174 3.007,-7.762Zm96.601,-99.074c0.001,0.006 0.002,0.012 0.002,0.017c0,0.059 -0.059,-0.029 -0.177,-0.264l-0.354,0c0,0.117 -0.118,0.176 -0.354,0.176l-0.354,0.353l-0.177,0l0,0.176c-0.943,0.588 -1.651,1.294 -2.123,2.117l-1.238,1.235c0,0.118 -0.059,0.236 -0.177,0.353l-0.177,0.177c-0.118,0.235 -0.295,0.47 -0.531,0.705c-0.472,0.588 -0.885,1.147 -1.238,1.676c-0.354,0.529 -0.708,1.088 -1.062,1.676c-1.415,2.117 -2.89,4.469 -4.423,7.057c-0.59,0.941 -1.121,1.881 -1.593,2.822c-0.471,0.941 -1.002,1.941 -1.592,2.999c-0.354,0.588 -0.649,1.176 -0.885,1.764c-0.117,0.118 -0.176,0.236 -0.176,0.353l0,-0.529c0,0.228 -0.055,0.401 -0.166,0.518l-0.011,0.011l0,0.353c-1.416,2.47 -2.772,4.969 -4.07,7.498c-1.297,2.528 -2.595,5.086 -3.892,7.674c-2.359,4.939 -4.63,9.908 -6.812,14.907c-2.182,4.998 -4.276,10.144 -6.281,15.436c-1.887,4.704 -3.656,9.762 -5.308,15.172c-0.825,2.47 -1.592,4.998 -2.3,7.586c-0.707,2.587 -1.179,5.174 -1.415,7.762c-0.354,2.705 -0.472,5.116 -0.354,7.233c0.118,0.705 0.177,1.323 0.177,1.852c0,0.529 0.118,1.147 0.354,1.852c0.118,0.236 0.206,0.471 0.265,0.706c0.059,0.235 0.148,0.471 0.266,0.706l0,0.176c0,0.118 0.059,0.235 0.177,0.353c0.118,0.118 0.177,0.206 0.177,0.265c0,0.058 0.059,0.147 0.176,0.264c0,0 0.059,0.118 0.177,0.353c0,0 0.118,0.118 0.354,0.353c0.118,0 0.177,0.059 0.177,0.176c0.118,0 0.236,0.059 0.354,0.177c0,0 0.118,0.059 0.354,0.176l0.177,0c0,0 0.059,0.059 0.177,0.177l1.592,0c0.236,0 0.413,-0.03 0.531,-0.089c0.118,-0.058 0.295,-0.088 0.531,-0.088c0.471,-0.235 0.825,-0.353 1.061,-0.353c0.118,-0.117 0.207,-0.176 0.266,-0.176c0.059,0 0.147,-0.059 0.265,-0.176c0.118,0 0.206,-0.03 0.265,-0.089c0.059,-0.058 0.148,-0.088 0.266,-0.088c1.061,-0.588 2.005,-1.176 2.831,-1.764c0.707,-0.47 1.179,-0.823 1.415,-1.059c0.118,0 0.177,-0.058 0.177,-0.176c0.118,0 0.236,-0.059 0.354,-0.176c0.354,-0.118 0.59,-0.353 0.708,-0.706c1.179,-0.823 2.182,-1.705 3.007,-2.646c2.123,-1.882 4.129,-3.881 6.016,-5.998c1.769,-2 3.42,-3.999 4.954,-5.998c1.533,-2 3.067,-4.176 4.6,-6.528c0.59,-0.823 1.091,-1.617 1.504,-2.381c0.413,-0.765 0.855,-1.559 1.327,-2.382c0.118,-0.118 0.177,-0.206 0.177,-0.265c0,-0.058 0.059,-0.147 0.177,-0.264c0,-0.115 0.028,-0.229 0.084,-0.344c0.044,-0.088 0.045,-0.091 0.004,-0.009l-0.004,0.009l-0.084,0.167c0.118,-0.235 0.235,-0.499 0.353,-0.793c0.118,-0.294 0.236,-0.559 0.354,-0.794c0,-0.118 0.059,-0.236 0.177,-0.353c0,-0.118 0.03,-0.206 0.089,-0.265c0.059,-0.059 0.088,-0.147 0.088,-0.264c0.118,-0.236 0.177,-0.412 0.177,-0.53c0,-0.117 0.059,-0.294 0.177,-0.529c0.236,-0.47 0.472,-1.176 0.708,-2.117c0.472,-1.294 0.707,-2.646 0.707,-4.057l0,-0.882c-0.118,0 -0.177,-0.059 -0.177,-0.177l0,-0.176c-0.235,-0.236 -0.294,-0.353 -0.176,-0.353l-0.177,0l-0.177,-0.177l-1.416,0c0,0.118 -0.059,0.177 -0.177,0.177c-0.707,0.353 -1.356,0.823 -1.946,1.411c-1.061,1.059 -2.005,2.411 -2.831,4.058c-0.707,1.058 -1.533,1.235 -2.477,0.529c-0.471,-0.235 -0.737,-0.559 -0.796,-0.97c-0.059,-0.412 0.03,-0.853 0.266,-1.323c0.707,-1.647 1.798,-3.235 3.273,-4.764c1.474,-1.529 3.155,-2.411 5.042,-2.646c1.887,-0.235 3.303,0.412 4.246,1.941c0.472,0.588 0.767,1.235 0.885,1.94c0.118,0.706 0.177,1.353 0.177,1.941c-0.118,1.646 -0.442,3.234 -0.973,4.763c-0.531,1.529 -1.091,2.999 -1.681,4.41c-0.236,0.471 -0.354,0.824 -0.354,1.059c-0.023,0 -0.045,0.002 -0.063,0.007c-0.005,0.019 -0.013,0.046 -0.025,0.081c-0.059,0.177 -0.148,0.324 -0.266,0.441c0,0.118 -0.118,0.412 -0.354,0.882c-0.235,0.353 -0.442,0.706 -0.619,1.059c-0.177,0.353 -0.383,0.705 -0.619,1.058c-1.297,2.235 -2.683,4.352 -4.158,6.351c-1.474,1.999 -3.037,3.94 -4.688,5.822c-1.77,2.234 -3.598,4.381 -5.485,6.439c-1.887,2.058 -3.893,3.969 -6.016,5.733c-1.651,1.412 -3.479,2.735 -5.484,3.97c-2.006,1.235 -4.129,1.97 -6.37,2.205c-2.241,0.118 -3.951,-0.588 -5.131,-2.117c-1.179,-1.529 -2.005,-3.293 -2.477,-5.293c-0.943,-4.822 -0.884,-9.585 0.177,-14.289c1.062,-4.704 2.359,-9.291 3.893,-13.76c3.42,-10.585 7.313,-20.906 11.677,-30.961c4.364,-10.056 9.2,-19.906 14.508,-29.55c0.236,-0.352 0.413,-0.676 0.531,-0.97c0.118,-0.294 0.295,-0.617 0.53,-0.97c0.826,-1.647 1.77,-3.352 2.831,-5.116c1.298,-2.352 2.684,-4.675 4.158,-6.969c1.475,-2.293 3.037,-4.498 4.689,-6.615c0.707,-0.823 1.415,-1.617 2.123,-2.382c0.708,-0.764 1.533,-1.44 2.477,-2.028c0.708,-0.471 1.533,-0.736 2.477,-0.794c0.943,-0.059 1.71,0.264 2.3,0.97c0.236,0.235 0.354,0.412 0.354,0.529c0.023,0 0.042,-0.002 0.056,-0.007c-0.037,-0.019 -0.056,-0.075 -0.056,-0.169c0.095,0.094 0.113,0.15 0.056,0.169c0.01,0.005 0.02,0.007 0.032,0.007c0.059,0 0.089,0.059 0.089,0.177c0.236,0.235 0.353,0.411 0.353,0.529c0.236,0.353 0.472,0.882 0.708,1.588c0.118,1.411 0.118,2.705 0,3.881c-0.236,1.646 -0.56,3.263 -0.973,4.851c-0.413,1.588 -0.914,3.205 -1.504,4.852c-1.297,3.057 -2.624,6.027 -3.981,8.908c-1.356,2.882 -2.801,5.793 -4.334,8.733c-0.236,0.47 -0.561,0.735 -0.973,0.794c-0.413,0.059 -0.797,-0.03 -1.151,-0.265c-0.353,-0.235 -0.648,-0.558 -0.884,-0.97c-0.236,-0.412 -0.236,-0.853 0,-1.323c0.943,-1.647 1.828,-3.352 2.654,-5.116c0.825,-1.764 1.651,-3.528 2.477,-5.293c1.533,-3.057 2.831,-6.351 3.892,-9.879c0.236,-0.706 0.472,-1.441 0.708,-2.205c0.236,-0.764 0.413,-1.558 0.531,-2.382c0,-0.235 0.059,-0.411 0.177,-0.529l0,-2.823c-0.118,-0.117 -0.177,-0.235 -0.177,-0.352l0,-0.706c-0.118,-0.118 -0.177,-0.206 -0.177,-0.265c0,-0.005 -0.001,-0.011 -0.002,-0.017Zm58.692,67.808c-0.137,-0.615 -0.239,-1.249 -0.304,-1.9c-0.236,-1.764 -0.059,-3.352 0.53,-4.763c0.236,-0.941 0.59,-1.764 1.062,-2.47c0.472,-0.705 1.121,-1.235 1.946,-1.588c0.944,-0.352 1.887,-0.294 2.831,0.177c0.944,0.47 1.592,1.117 1.946,1.94c0.826,1.882 0.679,3.646 -0.442,5.293c-1.121,1.646 -2.271,3.058 -3.45,4.234l-0.177,0.176c0.236,0.471 0.413,0.941 0.531,1.412c0.118,0.47 0.295,0.94 0.531,1.411c0.471,1.176 0.766,2.058 0.884,2.646c0.708,-0.235 1.386,-0.529 2.035,-0.882c0.649,-0.353 1.268,-0.647 1.858,-0.882c1.179,-0.588 2.3,-1.206 3.361,-1.852c1.062,-0.647 2.123,-1.441 3.185,-2.382c0.826,-0.706 1.592,-0.706 2.3,0c0.354,0.353 0.56,0.794 0.619,1.323c0.059,0.529 -0.147,0.912 -0.619,1.147c-2.713,2.234 -5.839,4.175 -9.377,5.821c-0.59,0.236 -1.091,0.442 -1.504,0.618c-0.413,0.176 -0.855,0.382 -1.327,0.617c0,0.236 -0.059,0.353 -0.177,0.353c-0.118,1.294 -0.413,2.558 -0.885,3.793c-0.471,1.235 -1.297,2.147 -2.477,2.735c-1.297,0.705 -2.447,0.617 -3.45,-0.265c-1.002,-0.882 -1.445,-1.97 -1.327,-3.264c0.118,-1.293 0.679,-2.352 1.681,-3.175c1.003,-0.823 1.976,-1.529 2.919,-2.117c-0.235,-1.294 -0.589,-2.47 -1.061,-3.528c-0.249,-0.558 -0.481,-1.116 -0.697,-1.673c-0.214,0.207 -0.512,0.353 -0.895,0.438c-1.534,0.235 -3.067,0.411 -4.601,0.529c-1.533,0.117 -3.066,0.294 -4.6,0.529c-0.354,0 -0.648,0.059 -0.884,0.177c-0.236,0.117 -0.384,0.235 -0.443,0.352c-0.059,0.118 -0.147,0.236 -0.265,0.353c-0.472,0.471 -0.914,0.912 -1.327,1.323c-0.413,0.412 -0.914,0.794 -1.504,1.147c-0.708,0.47 -1.504,0.764 -2.388,0.882c-0.885,0.118 -1.622,-0.235 -2.212,-1.058c-0.354,-0.353 -0.531,-0.647 -0.531,-0.882c-0.118,0 -0.177,0.058 -0.177,0.176l-4.246,5.645c-0.472,0.588 -0.944,1.117 -1.415,1.588l-1.416,1.411c-0.354,0.353 -0.737,0.706 -1.15,1.059c-0.413,0.353 -0.855,0.647 -1.327,0.882c-0.589,0.235 -1.209,0.323 -1.857,0.264c-0.649,-0.058 -1.15,-0.441 -1.504,-1.146c-0.354,-0.588 -0.502,-1.235 -0.443,-1.941c0.059,-0.705 0.207,-1.411 0.443,-2.117c0.236,-1.294 0.56,-2.528 0.973,-3.705c0.301,-0.858 0.618,-1.748 0.951,-2.668l-2.986,1.786c-0.826,0.471 -1.681,0.882 -2.565,1.235c-0.885,0.353 -1.799,0.647 -2.743,0.882c-0.943,0.236 -1.946,0.353 -3.007,0.353c-1.062,0 -2.006,-0.294 -2.831,-0.882c-0.205,-0.154 -0.393,-0.313 -0.562,-0.478c-0.555,1.03 -1.135,2.071 -1.738,3.124c-0.472,0.706 -0.915,1.441 -1.327,2.206c-0.413,0.764 -0.914,1.44 -1.504,2.028c-0.472,0.471 -1.062,0.941 -1.769,1.412c-0.708,0.47 -1.475,0.588 -2.301,0.352c-0.825,-0.235 -1.356,-0.705 -1.592,-1.411c-0.236,-0.706 -0.354,-1.47 -0.354,-2.293c0,-1.764 0.177,-3.646 0.531,-5.646c0.236,-0.94 0.472,-1.881 0.708,-2.822c0.236,-0.941 0.531,-1.882 0.884,-2.823c0.118,-0.235 0.236,-0.529 0.354,-0.882c0.118,-0.353 0.236,-0.647 0.354,-0.882l-0.531,0c-0.118,0 -0.206,-0.029 -0.265,-0.088c-0.059,-0.059 -0.148,-0.088 -0.265,-0.088l-2.654,8.115c-0.354,1.058 -1.062,1.411 -2.124,1.058c-1.061,-0.353 -1.474,-1.058 -1.238,-2.117c0.118,-0.117 0.177,-0.353 0.177,-0.705c0.118,-0.236 0.354,-0.971 0.708,-2.206c0.353,-1.234 0.648,-2.146 0.884,-2.734c0.236,-0.588 0.413,-1.088 0.531,-1.5c0.118,-0.411 0.295,-0.852 0.531,-1.323l-0.177,-0.176c-0.118,-0.118 -0.295,-0.412 -0.531,-0.882c-0.118,-0.118 -0.177,-0.235 -0.177,-0.353c-0.354,-1.058 -0.472,-2.058 -0.354,-2.999c0,-1.294 0.649,-2.176 1.947,-2.646c1.533,-0.235 2.653,0.176 3.361,1.235c0.59,1.058 0.708,2.411 0.354,4.057c0.472,0 0.914,0.03 1.327,0.088c0.413,0.059 0.855,0.089 1.327,0.089c0.826,0.235 1.238,0.823 1.238,1.764l0,0.529c-0.235,0.588 -0.442,1.088 -0.619,1.5c-0.177,0.411 -0.383,0.911 -0.619,1.499c-0.236,0.823 -0.472,1.617 -0.708,2.382c-0.236,0.764 -0.472,1.499 -0.707,2.205c-0.236,0.823 -0.413,1.617 -0.531,2.381c-0.118,0.765 -0.177,1.618 -0.177,2.558c0,0.236 -0.03,0.412 -0.089,0.53c-0.059,0.117 -0.088,0.294 -0.088,0.529c0,-0.118 0.059,-0.176 0.177,-0.176c0.236,-0.236 0.413,-0.471 0.531,-0.706c0.118,-0.235 0.294,-0.471 0.53,-0.706c0.354,-0.588 0.738,-1.205 1.15,-1.852c0.413,-0.647 0.797,-1.264 1.15,-1.853c0.708,-1.293 1.416,-2.616 2.124,-3.969c0.217,-0.416 0.435,-0.835 0.653,-1.256c0.213,-0.76 0.467,-1.458 0.762,-2.096c0.354,-0.764 0.767,-1.617 1.238,-2.558c0.472,-0.823 0.974,-1.646 1.504,-2.47c0.531,-0.823 1.15,-1.528 1.858,-2.117c0.826,-0.823 1.769,-1.47 2.831,-1.94c1.061,-0.47 2.123,-0.529 3.185,-0.176c1.297,0.352 2.152,1.087 2.565,2.205c0.413,1.117 0.324,2.205 -0.265,3.263c-0.944,1.647 -2.359,2.764 -4.247,3.352c-1.738,0.541 -3.375,0.984 -4.913,1.326c-0.013,0.029 -0.027,0.057 -0.041,0.086c-0.322,0.562 -0.637,1.121 -0.946,1.677c-0.038,0.14 -0.077,0.287 -0.115,0.44c-0.236,0.94 -0.295,1.528 -0.177,1.764c0.118,0.117 0.177,0.176 0.177,0.176l0,0.177l0.177,0c0,0.117 0.059,0.176 0.177,0.176c0.118,0 0.236,0.059 0.354,0.176c0.471,0 0.884,-0.029 1.238,-0.088c0.354,-0.059 0.767,-0.147 1.239,-0.264c1.651,-0.471 3.302,-1.177 4.954,-2.117c0.589,-0.353 1.15,-0.706 1.68,-1.059c0.531,-0.353 1.091,-0.706 1.681,-1.058c0.59,-0.353 1.091,-0.735 1.504,-1.147c0.413,-0.412 0.855,-0.794 1.327,-1.147c0.02,-0.011 0.04,-0.022 0.06,-0.032c0.296,-0.733 0.6,-1.457 0.913,-2.173c1.003,-2.293 2.094,-4.616 3.273,-6.968c0.472,-0.941 1.209,-1.118 2.212,-0.53c1.002,0.588 1.268,1.353 0.796,2.294c-2.359,4.469 -4.305,8.938 -5.839,13.407c-0.353,1.176 -0.737,2.323 -1.15,3.44c-0.412,1.118 -0.737,2.323 -0.973,3.617c0.944,-0.941 1.858,-1.97 2.743,-3.087c0.884,-1.118 1.739,-2.206 2.565,-3.264c0.708,-0.941 1.386,-1.852 2.035,-2.734c0.648,-0.883 1.209,-1.853 1.681,-2.911c0.471,-0.824 1.12,-1.088 1.946,-0.794c0.825,0.294 1.238,0.852 1.238,1.676c0.118,0.47 0.177,0.882 0.177,1.235c0,0.352 0.059,0.764 0.177,1.235c0,0 0.059,0.117 0.177,0.352l0,0.177c0,-0.118 0.059,-0.177 0.177,-0.177c0.354,-0.235 0.708,-0.529 1.062,-0.882c0.353,-0.353 0.707,-0.647 1.061,-0.882c0.59,-0.705 1.18,-1.235 1.769,-1.588c0.944,-0.47 2.065,-0.705 3.362,-0.705c1.297,-0.235 2.536,-0.382 3.715,-0.441c1.18,-0.059 2.418,-0.206 3.716,-0.441c0.308,-0.068 0.587,-0.082 0.835,-0.041Zm-67.246,16.278c0.011,-0.046 0.001,-0.043 -0.03,0.01c-0.056,0.025 -0.084,0.078 -0.084,0.159c0.037,-0.073 0.065,-0.126 0.084,-0.159c0.009,-0.004 0.019,-0.007 0.03,-0.01Zm68.711,-2.653c0.118,0 0.236,-0.059 0.354,-0.177l0.531,-1.058c-0.472,0.47 -0.767,0.882 -0.885,1.235Zm-36.27,-17.995c-0.59,-0.352 -1.298,-0.205 -2.123,0.441c-0.826,0.647 -1.416,1.206 -1.77,1.676c-0.117,0.236 -0.294,0.471 -0.53,0.706c0.354,-0.118 0.737,-0.206 1.15,-0.265c0.413,-0.058 0.796,-0.205 1.15,-0.441c0.707,-0.352 1.356,-0.823 1.946,-1.411l0.354,-0.529l-0.177,-0.177Zm-150.211,0c-0.59,-0.352 -1.298,-0.205 -2.123,0.441c-0.826,0.647 -1.416,1.206 -1.77,1.676c-0.118,0.236 -0.295,0.471 -0.531,0.706c0.354,-0.118 0.738,-0.206 1.15,-0.265c0.413,-0.058 0.797,-0.205 1.151,-0.441c0.707,-0.352 1.356,-0.823 1.946,-1.411l0.354,-0.529l-0.177,-0.177Zm21.585,1.235c0,-0.705 -0.118,-1.058 -0.354,-1.058c-0.236,0 -0.236,0.353 0,1.058l0.354,1.059l0,-1.059Zm108.633,-1.058c-0.118,0 -0.059,0.411 0.177,1.235l0,-0.706c0,-0.353 -0.059,-0.529 -0.177,-0.529Zm-121.018,0.529c0,-0.353 -0.059,-0.529 -0.177,-0.529c-0.118,0 -0.059,0.411 0.177,1.235l0,-0.706Zm180.289,-3.705c-0.118,0 -0.207,0.03 -0.266,0.089c-0.059,0.058 -0.029,0.088 0.089,0.088c-0.236,0.235 -0.354,0.411 -0.354,0.529c0,0 -0.059,0.059 -0.177,0.176l0,0.177c-0.118,0.353 -0.236,0.705 -0.354,1.058c-0.118,0.353 -0.177,0.706 -0.177,1.059l0,0.176c0,0.235 -0.059,0.353 -0.177,0.353l0,0.706c0.236,-0.236 0.472,-0.588 0.708,-1.059c0.472,-0.353 0.826,-0.882 1.062,-1.588c0.118,-0.117 0.177,-0.294 0.177,-0.529l0.176,-0.176l0,-0.353c0,-0.118 -0.059,-0.176 -0.176,-0.176c0,-0.118 -0.059,-0.236 -0.177,-0.353c-0.111,0 -0.221,-0.052 -0.332,-0.156l-0.022,-0.021Zm-79.971,-36.87c-0.118,0.235 -0.148,0.323 -0.089,0.264c0.059,-0.058 0.089,-0.147 0.089,-0.264Zm16.806,-23.569c-0.01,-0.058 -0.068,-0.141 -0.175,-0.247c0.107,0.106 0.165,0.189 0.175,0.247Z" style="fill:#fff;fill-rule:nonzero;"/></g></svg>