<svg xmlns="http://www.w3.org/2000/svg" width="371.528" height="121.285" viewBox="0 0 371.528 121.285"><g transform="translate(0 -302)"><path d="M189.7,332.927c.414,18.921,9.85,33.618,22.481,46.558,11.947,12.238,26.716,18.961,43.787,20.7a26.992,26.992,0,0,1,11.836,3.687c1.054.665,2,1.614,1.328,3.009-.562,1.168-1.684,1.042-2.714.67-12.227-4.414-25.757-4.656-37.289-11.145-25.515-14.356-42.855-34.763-44.388-65.175-.928-18.4,12.8-30.381,31.4-29.144,18.319,1.218,33.347,13.264,36.813,29.377,1.492,6.936-.228,13.429-2.362,19.892-.447,1.354-1.2,2.7-3,2.013-1.365-.52-1.551-1.816-1.289-3.07a54.839,54.839,0,0,1,1.419-5.544c2.628-8.179,1.07-15.762-3.267-22.913-7.989-13.171-28.846-19.453-42.27-12.765C192.284,314,189.484,322.644,189.7,332.927Z" transform="translate(-35.357)" fill="#fff"/><path d="M37.572,312.215c20.856.755,41.205,3.117,60.438,10.8,10.565,4.218,21.2,8.886,28.163,18.785.662.94,2.208,1.613,1.142,2.972-1.086,1.385-2.518.668-3.774.015a3.429,3.429,0,0,1-1.251-.914c-9.057-12.92-23.206-17.223-37.206-21.112-20.03-5.565-40.538-8.008-61.281-4.668C15.034,319.5,7.5,323.15,5.463,333.229c-.62,3.065-.9,5.8,1.514,8.225.822.828,1.961,1.856.722,3.08-1.094,1.081-2.277.163-3.343-.353-3-1.449-4.081-4.04-4.313-7.191-.649-8.851,6.1-18.379,15.3-21.291a74.831,74.831,0,0,1,11.082-2.84A107.1,107.1,0,0,1,37.572,312.215Z" transform="translate(0 -1.956)" fill="#fff"/><path d="M428.47,420.435c-.8,1.936-2.217,1.183-3.474.764-19.448-6.49-39.579-10.232-59.486-14.894-19.536-4.574-38.811-4.469-57.911,2.058-3.289,1.124-6.5,1.344-9.126-1.525-.854-.933-1.417-2.138-.714-3.331.8-1.366,2.189-1.125,3.155-.315,2.417,2.025,5.09,1.275,7.429.456,19.925-6.978,39.907-5.349,60.007-.92,18.786,4.14,37.74,7.592,55.842,14.368C425.933,417.745,427.929,418.151,428.47,420.435Z" transform="translate(-56.942 -18.551)" fill="#fff"/><path d="M124.918,378.986c.658.515,1.643.893,1.923,1.566,2.436,5.852,8.056,7.444,13.105,8.265,19.826,3.225,33.984,15.673,48.13,28.292,4.785,4.268,9.424,8.7,14.068,13.125a21.281,21.281,0,0,1,2.957,3.605c.749,1.121,1.775,2.581.395,3.725-1.5,1.247-2.538-.349-3.435-1.278-6.389-6.618-13.149-12.838-19.969-19.006-10.179-9.206-20.132-18.669-33.98-22.3-5.7-1.493-11.379-3.1-16.961-4.966-3.689-1.235-6.907-3.361-8.1-7.453C122.584,380.961,122.575,379.463,124.918,378.986Z" transform="translate(-23.51 -14.738)" fill="#fff"/><path d="M100.652,380.69c-.473,2.467-2.385,3.108-4.116,1.741-6.455-5.1-11.81-11.142-14.433-19.167-.379-1.162-.631-2.523.865-3.115,1.383-.547,2.278.388,2.945,1.473,1.987,3.233,3.894,6.515,5.934,9.712a17.52,17.52,0,0,0,6.48,6.563A3.77,3.77,0,0,1,100.652,380.69Z" transform="translate(-15.662 -11.101)" fill="#fff"/></g></svg>